<svg width="256" height="256" viewBox="0 0 1024 1024" fill="none" xmlns="http://www.w3.org/2000/svg">
<g clip-path="url(#clip0_4511_721)">
<rect width="1024" height="1024" fill="black"/>
<path d="M309.289 440.4L309.289 475.6L253.689 475.6L253.689 495.2L293.689 495.2L293.689 528.6L253.689 528.6L253.689 582L209.289 582L209.289 440.4L309.289 440.4ZM385.328 583.4C371.995 583.4 359.728 580.267 348.528 574C337.461 567.733 328.661 559.067 322.128 548C315.595 536.933 312.328 524.467 312.328 510.6C312.328 496.733 315.595 484.267 322.128 473.2C328.661 462.133 337.461 453.533 348.528 447.4C359.728 441.133 371.995 438 385.328 438C398.661 438 410.861 441.133 421.928 447.4C432.995 453.533 441.728 462.133 448.128 473.2C454.661 484.267 457.928 496.733 457.928 510.6C457.928 524.467 454.661 536.933 448.128 548C441.728 559.067 432.928 567.733 421.728 574C410.661 580.267 398.528 583.4 385.328 583.4ZM385.328 542C394.128 542 400.928 539.2 405.728 533.6C410.528 527.867 412.928 520.2 412.928 510.6C412.928 500.867 410.528 493.2 405.728 487.6C400.928 481.867 394.128 479 385.328 479C376.395 479 369.528 481.867 364.728 487.6C359.928 493.2 357.528 500.867 357.528 510.6C357.528 520.2 359.928 527.867 364.728 533.6C369.528 539.2 376.395 542 385.328 542ZM509.345 440.4L509.345 520.2C509.345 526.733 510.745 531.933 513.545 535.8C516.479 539.533 521.145 541.4 527.545 541.4C533.945 541.4 538.679 539.533 541.745 535.8C544.812 531.933 546.345 526.733 546.345 520.2L546.345 440.4L590.545 440.4L590.545 520.2C590.545 533.667 587.745 545.2 582.145 554.8C576.545 564.267 568.879 571.4 559.145 576.2C549.412 581 538.545 583.4 526.545 583.4C514.545 583.4 503.879 581 494.545 576.2C485.345 571.4 478.145 564.267 472.945 554.8C467.745 545.333 465.145 533.8 465.145 520.2L465.145 440.4L509.345 440.4ZM717.495 489C717.495 497.933 715.429 506.067 711.295 513.4C707.162 520.6 701.029 526.333 692.895 530.6C684.895 534.867 675.162 537 663.695 537L646.095 537L646.095 582L601.695 582L601.695 440.4L663.695 440.4C681.029 440.4 694.295 444.8 703.495 453.6C712.829 462.4 717.495 474.2 717.495 489ZM658.695 502C667.895 502 672.495 497.667 672.495 489C672.495 480.333 667.895 476 658.695 476L646.095 476L646.095 502L658.695 502ZM767.978 475.8L767.978 493.2L811.978 493.2L811.978 526.6L767.978 526.6L767.978 546.6L817.978 546.6L817.978 582L723.578 582L723.578 440.4L817.978 440.4L817.978 475.8L767.978 475.8Z" fill="white"/>
</g>
<defs>
<clipPath id="clip0_4511_721">
<rect width="1024" height="1024" fill="white"/>
</clipPath>
</defs>
</svg>